<?xml version="1.0" encoding="utf-8"?>
<!-- Generator: Adobe Illustrator 22.0.1, SVG Export Plug-In . SVG Version: 6.00 Build 0)  -->
<svg version="1.1" id="Layer_1" xmlns="http://www.w3.org/2000/svg" xmlns:xlink="http://www.w3.org/1999/xlink" x="0px" y="0px"
	 viewBox="0 0 800 74.8" style="enable-background:new 0 0 800 74.8;" xml:space="preserve">
<path id="node6" class="st0" d="M56.7,3.5c-9.9,3.9-22.4,15.8-33.4,31.9c-4.8,7.2-12.2,14-16.1,15.5C1.5,53.3,0,56,0,64.4v10.4h400
	h400V64.7c0-9.6-0.6-10.1-12.2-11.6c-14.9-2.1-26.6-12.2-26.6-23.3c0-10.1,14.9-23.6,26.3-23.6c6.3,0,7.2-0.6,3.6-3
	c-6.9-4.5-26.3-3.6-37.9,2.1c-5.7,2.7-17.6,14-26.6,25.1c-17.3,21.8-24.5,25.4-41.2,22.4c-14.9-3-23.6-11-23.6-22.1
	c0-12.5,8.4-21.2,23-23.6c9.6-1.5,10.7-2.4,6.3-4.2c-21.8-8.4-47.5,2.4-64.5,27.8C613.1,50,604.2,55.1,587.2,53
	C567.8,50.3,557,35.7,563,19.6c2.4-6.3,16.7-13.4,27.2-13.7h8.4l-7.5-3c-11.6-4.8-35.2-0.9-46.3,7.5c-5.4,4.2-14,14-19.1,21.8
	c-14.6,21.8-28.1,26.6-49.6,17.3c-23.9-9.9-17.9-38.2,8.7-42.4c9.6-1.5,10.7-2.4,6.3-4.2c-21.5-8.4-45.4,1.8-63.9,27.2
	c-15.8,21.8-20.9,25.1-38.8,23c-27.5-3-37.3-31-14.9-42.4c4.5-2.4,11.3-4.5,15.2-4.5c5.7,0,6-0.6,2.4-3c-6.6-4.2-25.7-3.6-37,1.2
	c-6,2.4-16.7,12.8-26.9,25.4c-17.9,22.4-24.8,26.3-41.8,23c-14.9-3-23.6-11-23.6-22.1c0-12.5,7.8-20.6,23-23.9L297,4.1l-11-2.4
	c-25.1-5.1-35.2,0.9-69.9,41.5c-7.8,9-11.3,10.7-20.9,10.7c-13.7,0-29.6-9-32.5-17.9c-5.1-15.5,8.1-29.6,27.5-30.1
	c7.5,0,7.8-0.3,2.4-2.7c-9.9-4.2-28.4-3.3-39.4,2.1c-5.7,2.7-15.8,11.6-22.1,20c-21.2,27.8-26.6,31-45.7,27.5
	c-14.9-3-23.6-11-23.6-22.1c0-12.5,8.4-21.2,23-23.6c9.6-1.5,10.7-2.4,6.3-4.2C82.7-0.4,65.7-0.1,56.7,3.5z"/>
</svg>
