<?xml version="1.0" encoding="utf-8"?>
<!-- Generator: Adobe Illustrator 22.0.1, SVG Export Plug-In . SVG Version: 6.00 Build 0)  -->
<svg version="1.1" id="Layer_1" xmlns="http://www.w3.org/2000/svg" xmlns:xlink="http://www.w3.org/1999/xlink" x="0px" y="0px"
	 viewBox="0 0 800 83.6" style="enable-background:new 0 0 800 83.6;" xml:space="preserve">
<path d="M0-2v87h0.5c0.8-3.7,2.8-5.5,6.7-7.1c3.9-1.5,11.3-8.3,16.1-15.5c11-16.1,23.5-28,33.4-31.9c9-3.6,26-3.9,34.4-0.6
	c4.4,1.8,3.3,2.7-6.3,4.2c-14.6,2.4-23,11.1-23,23.6c0,11.1,8.7,19.1,23.6,22.1c19.1,3.5,24.5,0.3,45.7-27.5
	c6.3-8.4,16.4-17.3,22.1-20c11-5.4,29.5-6.3,39.4-2.1c5.4,2.4,5.1,2.7-2.4,2.7c-19.4,0.5-32.6,14.6-27.5,30.1
	c2.9,8.9,18.8,17.9,32.5,17.9c9.6,0,13.1-1.7,20.9-10.7c34.7-40.7,44.8-46.7,69.9-41.6l11,2.4l-12.2,2.7c-15.2,3.3-23,11.4-23,23.9
	c0,11.1,8.7,19.1,23.6,22.1c17,3.3,23.9-0.6,41.8-23c10.2-12.6,20.9-23,26.9-25.4c11.3-4.8,30.4-5.4,37-1.2c3.6,2.4,3.3,3-2.4,3
	c-3.9,0-10.7,2.1-15.2,4.5c-22.4,11.4-12.6,39.5,14.9,42.5c17.9,2.1,23-1.2,38.8-23c18.5-25.4,42.4-35.7,63.9-27.2
	c4.4,1.8,3.3,2.7-6.3,4.2c-26.6,4.2-32.6,32.5-8.7,42.5c21.5,9.3,35,4.5,49.6-17.3c5.1-7.8,13.7-17.6,19.1-21.8
	c11.1-8.4,34.7-12.3,46.3-7.5l7.5,3h-8.4c-10.5,0.3-24.8,7.4-27.2,13.7c-6,16.1,4.8,30.7,24.2,33.4c17,2.1,25.9-3,39.4-22.3
	c17-25.4,42.7-36.3,64.5-27.8c4.4,1.8,3.3,2.7-6.3,4.2c-14.6,2.4-23,11.1-23,23.6c0,11.1,8.7,19.1,23.6,22.1
	c16.7,3,23.9-0.6,41.2-22.4c9-11.1,20.9-22.4,26.6-25.1c11.6-5.7,31-6.6,37.9-2.1c3.6,2.4,2.7,3-3.6,3c-11.4,0-26.3,13.5-26.3,23.6
	c0,11.1,11.7,21.2,26.6,23.3c7.9,1,10.7,1.6,11.7,4.9h0.5V-2H0z"/>
</svg>
